<?xml version="1.0" encoding="UTF-8" standalone="no"?>
<!-- Generator: Adobe Illustrator 19.0.0, SVG Export Plug-In . SVG Version: 6.00 Build 0)  -->

<svg
   xmlns:dc="http://purl.org/dc/elements/1.1/"
   xmlns:cc="http://creativecommons.org/ns#"
   xmlns:rdf="http://www.w3.org/1999/02/22-rdf-syntax-ns#"
   xmlns:svg="http://www.w3.org/2000/svg"
   xmlns="http://www.w3.org/2000/svg"
   xmlns:sodipodi="http://sodipodi.sourceforge.net/DTD/sodipodi-0.dtd"
   xmlns:inkscape="http://www.inkscape.org/namespaces/inkscape"
   version="1.1"
   id="Layer_1"
   x="0px"
   y="0px"
   viewBox="0 0 700 700"
   xml:space="preserve"
   sodipodi:docname="brawl-stars-logo.svg"
   width="700"
   height="700"
   inkscape:export-filename="C:\Users\suitedoalex\sites\brawl-stars-logo-0.png"
   inkscape:export-xdpi="561.73712"
   inkscape:export-ydpi="561.73712"
   inkscape:version="0.92.4 (5da689c313, 2019-01-14)"><metadata
   id="metadata51"><rdf:RDF><cc:Work
       rdf:about=""><dc:format>image/svg+xml</dc:format><dc:type
         rdf:resource="http://purl.org/dc/dcmitype/StillImage" /><dc:title></dc:title></cc:Work></rdf:RDF></metadata><defs
   id="defs49" /><sodipodi:namedview
   pagecolor="#ffffff"
   bordercolor="#666666"
   borderopacity="1"
   objecttolerance="10"
   gridtolerance="10"
   guidetolerance="10"
   inkscape:pageopacity="0"
   inkscape:pageshadow="2"
   inkscape:window-width="1600"
   inkscape:window-height="837"
   id="namedview47"
   showgrid="false"
   inkscape:zoom="0.95068162"
   inkscape:cx="216.67969"
   inkscape:cy="288.76046"
   inkscape:window-x="-8"
   inkscape:window-y="-8"
   inkscape:window-maximized="1"
   inkscape:current-layer="Layer_1" />
<style
   type="text/css"
   id="style2">
	.st0{fill:#FFFFFF;}
	.st1{fill:#BBB9B8;}
	.st2{fill:#ACA9A9;}
	.st3{fill:#ED2024;}
	.st4{fill:#FEE25B;}
	.st5{fill:#FDB820;}
	.st6{fill:#C95E40;}
	.st7{fill:#444646;}
	.st8{fill:#868789;}
	.st9{fill:#000100;}
	.st10{fill:#010101;}
	.st11{fill:#FEBE22;}
	.st12{fill:#010100;}
</style>
<g
   id="XMLID_1_"
   transform="matrix(0.16370085,0,0,0.16370085,289.10328,249.23643)"
   inkscape:export-filename="C:\Users\suitedoalex\sites\brawl-stars-logo-4.png"
   inkscape:export-xdpi="71.801109"
   inkscape:export-ydpi="71.801109">
	<g
   id="XMLID_46_">
		<path
   id="XMLID_86_"
   d="m 2005.5,-219 c 0,1.5 0,3 0,4.5 -2.8,20.5 -11.6,39.1 -18.2,58.4 -10.1,29.8 -20.6,59.5 -30.9,89.3 -27.5,79.6 -55,159.2 -82.9,238.7 -3.2,9 -1.8,14.7 4.9,21.7 46.5,48.7 74.4,106.7 82.7,173.5 8.7,70 0.3,138.1 -25.6,203.8 -10.7,27.1 -25,52.2 -42.2,75.7 -42.6,58 -85,116.2 -127,174.7 -37.1,51.8 -86.2,88.4 -144.5,113.2 -39.4,16.8 -80.7,26.2 -123.4,29.4 -55.2,4 -109.8,0.3 -163.8,-12.1 -20.7,-4.8 -41.1,-10.6 -61.3,-17.3 -4.8,-1.6 -9.7,-2.3 -14.7,-2.3 -52,0 -104,0 -156,0 -8.8,0 -9.2,0.5 -8.5,9.5 4.1,47 0.8,93.3 -13.5,138.5 -5.7,17.9 -13.3,35 -22,51.6 -4,7.7 -3.9,7.9 3.5,12 14,7.9 21.3,20.1 22.8,35.8 4.8,49 -0.2,97.3 -12.9,144.8 -17.3,64.4 -49.9,119.8 -100,164 -41.5,36.5 -90.1,59.9 -143.3,74 -1.7,0.4 -3.4,1 -5.1,1.3 -5.2,0.9 -6.3,3.6 -4.8,8.6 5.1,16.7 10,33.5 15,50.3 1.8,6 3.6,12 5.1,18 2.2,8.8 0.8,11.4 -7.9,13.5 -22.4,5.2 -44.6,11 -67,16.4 -38.4,9.2 -76.7,18.7 -115.1,28 -26.2,6.3 -52.2,13.8 -78.7,18.8 -12.6,2.4 -20,11 -27.4,19.6 -14.2,16.5 -30.1,31.4 -45,47.1 -19.2,20.3 -38.6,40.5 -58.2,60.5 -24.6,25.2 -48.4,51.2 -73.3,76.1 -2.5,2.5 -5,4.9 -7.8,7 -0.5,0 -1,0 -1.5,0 -9.2,-5.1 -15.5,-13.3 -22.4,-20.7 -4.1,-4.4 -8,-8.9 -12.2,-13.2 -37.5,-37.4 -73.7,-76.1 -110.6,-114.1 -16.5,-17 -34.1,-33.1 -49.1,-51.5 -3.8,-4.6 -8.6,-7.4 -14.4,-8.8 -64.4,-15.5 -128.8,-31.1 -193.2,-46.5 -24.5,-5.9 -49.1,-11.6 -73.6,-17.9 -9,-2.3 -9.5,-3.4 -6.8,-12.6 6.6,-22.5 13.2,-45.1 19.8,-67.6 2.5,-8.6 2.2,-8.8 -6.6,-11.1 -50.4,-13.4 -96.9,-34.6 -137.7,-67.4 -40.3,-32.5 -69.9,-73.1 -91,-120.2 -18.1,-40.4 -27.3,-83 -31.4,-126.8 -2.1,-22.1 -2.3,-44.4 -0.1,-66.5 1.7,-17.3 9.3,-31.1 24.8,-39.5 5.9,-3.2 4.5,-6.7 2.1,-11 -18.1,-32.5 -28.7,-67.5 -34.1,-104.2 -6.6,-44.2 -4.1,-88.3 5.2,-131.8 3.4,-16 2.1,-31.9 1.2,-47.7 -0.8,-14.2 -1.1,-28.4 -2,-42.6 -0.9,-13.4 -1.7,-26.9 -2,-40.6 -16.6,32.3 -37.4,61.5 -63.1,87.1 -40.9,40.7 -89.1,69.8 -143.4,89 -41,14.5 -83.3,22.7 -126.7,25.8 -80.8,5.8 -159.5,-4.4 -236.6,-29 -40.3,-12.9 -79,-29.6 -117.4,-47.5 -13.9,-6.5 -23.6,-15.6 -32.7,-27.3 -39.2,-50.6 -78.7,-100.9 -118,-151.4 -2,-2.6 -3.9,-5.2 -6,-7.7 -4,-4.8 -5,-9.8 -3.8,-16 7.3,-38.5 14.5,-77.1 21.7,-115.7 15.3,-82.1 30.5,-164.1 46.1,-246.1 1.3,-7 -1.3,-12.1 -4.5,-17.6 -20.3,-34.7 -39.9,-69.9 -60.7,-104.3 -12.3,-20.4 -20.7,-42.1 -26.5,-65 -6.5,-25.5 -11.2,-51.2 -11.3,-77.7 -0.7,-19.3 -0.5,-38.5 0,-57.8 1.2,-43.4 11.4,-84.7 29.9,-123.7 41.4,-87.4 109.6,-145.4 199.6,-178.7 42,-15.6 85.7,-23.5 130.3,-26.3 14.4,-0.9 28.8,-2.7 43.3,-2.9 5.1,-0.1 7.7,-2.4 8.8,-7.3 1.6,-7.1 3,-14.2 4.8,-21.2 2.5,-9.4 4.9,-11.1 14.4,-9.6 31.4,4.9 62.7,9.8 94.1,14.6 61.8,9.5 123.5,19.3 185.3,28.6 8.2,1.2 8.2,1.2 7.4,-6.7 -1.5,-14.2 -3.5,-28.3 -4.8,-42.5 -0.5,-5.5 -3.4,-9.8 -6.7,-14 -10.5,-13.3 -20.8,-26.9 -31.4,-40.2 -4.2,-5.3 -5.8,-10.9 -5.1,-17.4 3.8,-34 7.2,-68.1 10.7,-102.1 2.9,-28.1 6,-56.1 8.7,-84.2 1.2,-13 2.7,-14.8 15.6,-16.4 73.9,-9 147.9,-17.8 221.8,-26.9 39.2,-4.8 75,3.2 107.3,26.1 3.7,2.6 7.2,5.4 10.5,8.5 3.7,3.4 5.4,3.1 6.7,-2.1 3.5,-14.1 7.3,-28.1 11.1,-42 2.8,-10.2 3.6,-10.7 13.9,-10 12.7,0.9 25.5,0.9 38.2,1.4 17.5,0.6 34.9,1.5 52.4,2.2 28.9,1.2 57.9,2.1 86.8,3.8 17.2,1.1 34.5,0.7 51.5,3.6 34.3,5.9 65,19.3 91.1,42.7 5.2,4.6 5.9,4.4 7.2,-2.3 1.7,-9.1 3,-18.3 4.7,-27.4 1.6,-9 4.4,-11.2 13.6,-11.7 37.6,-2 75.2,-4.9 112.8,-7.2 27.9,-1.7 55.8,-3.3 83.7,-5.2 30.6,-2.1 61.3,-3.5 92,-4.1 3,0.2 6.1,-0.4 9.1,0.4 2.9,2 3.6,5.3 4.7,8.3 4.1,12.1 8.1,24.2 12.2,36.3 2.9,8.5 3.9,9.5 13,8.8 14.4,-1.1 28.9,-2.3 43.3,-3.5 22.6,-1.9 45.3,-3.3 67.9,-5.4 10.7,-1 21.5,-1.1 32.1,-2.7 10.8,-1.6 19.1,0.6 23.7,11.8 1.8,4.5 4.3,8.8 7.8,14.3 1.8,-7.4 3.3,-13.4 4.4,-19.5 1.2,-6.6 4.7,-9.5 11.6,-10.1 39.1,-3.1 78.2,-6 117.2,-9.1 20.7,-1.6 41.3,-3.2 62,-4.9 6,-0.5 10,1.2 13.3,6.1 3.9,5.7 7.1,11.9 12.6,17.8 2.4,-5.5 3,-10.7 4.2,-15.7 2.1,-8.6 5,-11.4 13.9,-11.9 34.9,-2.1 69.7,-5.3 104.6,-7.9 35.1,-2.6 70.2,-5.3 105.3,-8.5 5.7,-0.5 11.5,-0.3 17.2,-1 5.1,-0.6 7.4,2.1 7.1,7.1 -0.3,4 -1.1,7.9 -1.8,11.9 -0.9,4.7 0.8,7 5.8,7.2 26.2,0.9 52.3,3.1 78.5,4.7 21.4,1.3 42.9,2.1 64.3,4.4 7.4,0.8 8.9,2.5 8.5,10.2 -1.9,33.4 -4.8,66.7 -7.2,100.1 -1.7,23.2 -3.4,46.3 -5,69.5 -2.1,29.9 -4.2,59.8 -6.7,89.6 -0.8,9.6 0.1,10.6 9.8,11.1 34.7,1.6 69.3,3.2 103.9,5.7 5.2,0.4 10.5,0 15.7,0.3 7.8,0.5 9.9,3 7.7,10.7 -4.9,17.8 -10.3,35.5 -15.6,53.2 -5.1,16.7 -10.1,33.5 -15.1,50.3 -0.7,2.3 -1.7,4.6 -1.1,7.1 3,0.8 5.2,-0.8 7.4,-1.8 43.6,-19.6 89.3,-29.5 137,-32.9 33.9,-2.4 67.3,1.2 101,2.5 6.2,0.3 9.2,-1.5 11.1,-7.1 2,-5.9 4.2,-11.8 6.6,-17.5 3.3,-7.9 5.1,-8.8 13.2,-6.7 40.2,10.2 80.3,20.9 120.4,31.4 48.1,12.6 96.2,25.2 144.3,37.8 24.2,6.3 48.4,12.6 72.5,19 4.4,1.1 9.9,1.2 12.9,6.1 z"
   inkscape:connector-curvature="0" />
		
		
		
		
		<path
   id="XMLID_81_"
   class="st1"
   d="m -1261.5,16.5 c 1.8,-2.1 1.2,-4.7 1.5,-7.1 0.2,-2.2 -0.3,-4.5 1.4,-6.4 0.1,2 0.3,4 0.1,5.9 -1.4,16.1 -1.2,32.2 0,48.3 0.1,2 -0.1,3.9 -0.1,5.9 -1.8,-2.1 -1.1,-4.7 -1.4,-7.2 -0.3,-2.7 0.4,-5.5 -1.4,-7.9 -0.1,-10.5 -0.1,-21 -0.1,-31.5 z"
   inkscape:connector-curvature="0"
   style="fill:#bbb9b8" />
		
		<path
   id="XMLID_79_"
   class="st3"
   d="m 1264.7,646.8 c 6.4,13.8 12.6,27.3 19.1,41.4 -7.6,0 -14.5,0.2 -21.3,0 -14.7,-0.6 -29.4,-1.6 -44.2,-2.3 -28.5,-1.2 -56.9,-2.3 -85.4,-3.5 -39.2,-1.8 -78.4,-3.8 -117.6,-5.5 -4.9,-0.2 -6.2,-2.6 -7.6,-6.3 -27.3,-70.5 -54.8,-141 -82.2,-211.5 -1,-2.5 -1.4,-5.3 -4.1,-8.2 -0.6,9.7 -1.3,18.7 -1.7,27.7 -1.8,40.2 -3.4,80.4 -5.1,120.6 -0.9,22 -2,43.9 -3,65.9 -0.3,6.9 -0.4,7.1 -7.3,6.8 -27.2,-1.2 -54.4,-2.6 -81.6,-3.8 -16,-0.7 -32,-1.3 -47.9,-2.1 -40,-2.1 -80,-0.8 -119.9,-1 -53.7,-0.2 -107.5,-0.1 -161.2,-0.1 -1.5,0 -3,0 -4.5,0 -6.4,-0.1 -6.4,-0.1 -7.5,-6.6 -5.6,-32 -11.2,-63.9 -16.7,-95.9 -1.1,-6.1 -1.1,-6.2 -7,-6.2 -66,0 -132,0 -198,0 -6.7,0 -5.6,-0.8 -7.7,6.5 -9.3,31.9 -18.4,63.8 -27.7,95.6 -1.9,6.4 -1.9,6.5 -8.6,6.5 -80.2,0 -160.5,0 -240.7,0 -1.7,0 -3.5,0.4 -5.3,-0.7 -0.9,-2.1 0.2,-4.2 0.7,-6.3 49.1,-182.7 98.2,-365.3 147.3,-548 0.2,-0.7 0.4,-1.4 0.6,-2.2 1.7,-6.6 1.7,-6.7 -4.9,-6.8 -15.7,-0.2 -31.5,-0.3 -47.2,-0.4 -5,0 -9.9,0 -15.3,0 0.8,-8.5 3.2,-15.9 4.9,-23.3 13.9,-60.5 28.2,-121.3 42.4,-182 1.8,-7.7 1.8,-7.7 9.6,-7.7 126,0 252,0 378,0 15,0 30,0 45,0 7.2,0 7.2,0 9,6.7 25.4,98.9 50.9,197.7 76.2,296.6 23.6,92.1 47.2,184.2 70.8,276.3 0.5,2.1 1.3,4.2 2.3,7.7 1.7,-6.2 1.7,-11.1 1.9,-16 1.9,-42.7 3.9,-85.4 5.8,-128.1 1.2,-26 2.2,-51.9 3.4,-77.9 1.3,-29.2 2.7,-58.4 4.1,-87.6 0.5,-11 0.9,-22 1.5,-33 0.2,-3.9 -1.5,-4.5 -4.8,-4.6 -12,-0.4 -24,-1 -36,-1.5 -0.7,0 -1.5,0 -2.2,-0.1 -7.4,-0.3 -7.4,-0.3 -5.6,-7.2 1,-3.9 2.1,-7.7 3.2,-11.5 17.7,-64.5 35.4,-129 53.2,-193.5 0.3,-1.2 0.8,-2.4 1,-3.6 0.4,-3.9 2.8,-4.8 6.2,-4.4 12.2,1.2 24.5,0.8 36.7,1.8 14.5,1.2 29,1.2 43.4,2.1 28.4,1.7 56.9,2.3 85.4,3.6 37.7,1.7 75.4,3.7 113,5.4 16.2,0.8 32.5,1.1 48.7,2 50.3,2.8 97.4,15.8 139.3,44.8 28.3,19.6 51.4,44.3 70.2,73.1 1.5,2.3 3,4.6 4.7,7.3 2.4,-2.5 1.7,-5.3 1.9,-7.8 3.1,-37.2 11.4,-73 27.9,-106.6 28.8,-58.5 74.9,-98.4 134.5,-123.2 25.7,-10.7 52.7,-16.7 80.3,-20 32.2,-3.9 64.3,-2.1 96.5,-0.3 24,1.3 47.6,4.8 71.2,9.2 2.6,0.5 4.2,-0.1 5.1,-2.8 2,-5.7 4.1,-11.2 6.2,-16.9 3.2,-8.6 3.2,-8.5 11.8,-6.3 31.6,8.3 63.2,16.6 94.8,24.9 39.8,10.4 79.6,20.9 119.4,31.4 5.9,1.5 5.9,1.6 4,7.4 -30.4,90.4 -60.7,180.7 -91.1,271.1 -0.3,0.9 -0.7,1.9 -1,2.8 -0.6,2.2 -1.8,2.9 -3.8,1.6 -1.7,-1.1 -3.4,-2.2 -5.1,-3.2 -49.7,-29.8 -102.3,-52.9 -158.1,-68.8 -17.7,-5 -35.8,-6.9 -54.1,-5.2 -7.5,0.7 -14.7,2.4 -21.6,5.7 -13.9,6.6 -19.9,18.3 -21.1,32.9 -0.4,4.9 1.7,9.3 4.5,13.3 4.4,6.5 10.4,11.4 16.7,16 19.2,13.8 40.6,23.5 62.2,32.7 40.7,17.4 80.8,35.8 118.8,58.6 27.8,16.7 53.4,36 74.4,61 29,34.6 47,74 53.3,118.7 8.2,57.8 2,114.2 -18.8,168.7 -22.8,59.5 -62.8,105 -116.9,138.2 -37.7,23.1 -78.7,37.4 -122.3,44.6 -30.7,5.1 -61.6,6.8 -92.6,5.5 -64.4,-2.8 -126.5,-16.7 -186.3,-40.6 -27.9,-11.1 -54.8,-24 -81.1,-38.6 -2,-1.4 -3.8,-3.3 -7.4,-3 z"
   inkscape:connector-curvature="0"
   style="fill:#f01919;fill-opacity:1" />
		<path
   id="XMLID_78_"
   class="st3"
   d="m -518.9,-245.6 c -7,25.6 -13.9,50.3 -20.7,75.1 -18.2,66.7 -36.5,133.3 -54.7,200 -0.3,1.2 -0.7,2.4 -1.1,3.6 -1.8,6.4 -1.8,6.4 -7.7,4.1 -34.7,-13.6 -70.6,-22.9 -106.9,-31 -19.2,-4.3 -38.7,-7.7 -58.2,-10.1 -25.6,-3.2 -50.8,-2.6 -75.6,5.5 -8.1,2.7 -15.9,6 -22.5,11.5 -9.8,8.3 -13,19.2 -12.1,31.6 0.5,6.9 4.5,12.1 9.4,16.5 6.4,5.7 13.7,10 21.4,13.8 20.3,9.9 41.7,16.6 63.3,22.6 45.2,12.6 90,26.3 133.1,45 27.6,12 53.8,26.3 77,45.8 41.6,34.9 68.7,78.8 82.1,131.2 9.9,38.6 12.4,77.8 9.4,117.5 -2.7,36.5 -11,71.5 -26.4,104.7 -24.4,52.7 -62,93.9 -110.1,125.9 -40.2,26.7 -84.5,43.7 -131.6,53.7 -45.5,9.7 -91.5,12.7 -137.9,10.5 -62,-3 -122.1,-15.8 -180.6,-36.3 -24.7,-8.7 -49,-18.6 -72.8,-29.6 -6.2,-2.9 -6.1,-2.9 -4.8,-9.6 10.3,-55 20.5,-109.9 30.8,-164.9 6.5,-34.6 12.9,-69.2 19.4,-103.8 0.9,-4.8 1,-4.9 5.9,-3.1 26,9.5 52,18.9 78,28.6 28.1,10.4 56.1,20.8 85.5,27.1 25.2,5.4 50.6,9.2 76.5,8.1 13.3,-0.5 26.4,-2.2 38.7,-7.5 11.3,-4.9 20,-12.4 23.4,-24.7 4,-14.6 2,-27.6 -10,-38.2 -8.7,-7.7 -18.7,-13.3 -29.2,-18.1 -23.2,-10.7 -47.8,-17.2 -72.4,-23.8 -46,-12.5 -91.4,-26.7 -135,-46.5 -31.5,-14.3 -59.9,-32.9 -84.1,-57.8 -32.1,-33.2 -52.4,-72.7 -62.8,-117.5 -8.9,-38.3 -11.2,-77.1 -7.3,-116.2 6.3,-62 29.8,-116.1 73.9,-160.8 34.9,-35.5 76.7,-59.6 124.1,-74.2 25.1,-7.7 50.8,-12.7 76.9,-15.3 22.4,-2.3 44.8,-3.7 67.2,-5.1 15.2,-1 30.5,1.1 45.7,1 8,0 8,0.1 9.8,-7.4 1.4,-5.8 2.7,-11.7 4.1,-17.5 1.4,-5.8 1.5,-6 7.6,-5.1 10.6,1.5 21.2,3.2 31.8,4.9 24.4,3.8 48.8,7.6 73.2,11.5 24.4,3.8 48.8,7.7 73.2,11.4 23.9,3.7 47.8,7.4 71.7,11.1 3.7,0.4 7.1,1.1 11.4,1.8 z"
   inkscape:connector-curvature="0"
   style="fill:#f01919;fill-opacity:1" />
		<path
   id="XMLID_77_"
   class="st3"
   d="m -573.8,162.8 c 2.5,-12.2 4.9,-24.4 7.4,-36.5 11.8,-57.4 23.6,-114.9 35.4,-172.3 0.2,-1 0.4,-2 0.6,-2.9 0.5,-3.4 1.9,-4.9 5.8,-5.1 20.5,-0.8 40.9,-1.9 61.4,-3.1 30.7,-1.7 61.3,-3.7 92,-5.4 22.7,-1.3 45.4,-2.3 68.1,-3.5 28.9,-1.5 57.9,-3.1 86.8,-4.7 1.7,-0.1 3.5,-0.6 5.2,-0.6 4,0.1 5.6,-1.6 6,-5.6 0.6,-6.2 2,-12.3 2.9,-18.5 0.5,-3.4 1.7,-5.1 5.7,-5.3 21,-0.7 41.9,-1.8 62.9,-2.8 28.2,-1.3 56.4,-2.6 84.6,-4 11.7,-0.6 23.5,-0.7 35.2,-1.4 24.4,-1.5 48.9,-2.3 73.4,-3.3 1.7,-0.1 3.5,-0.1 5.2,-0.1 4.5,0.1 4.9,0.5 3.8,4.7 -2.3,9.2 -4.8,18.3 -7.2,27.5 C 43,-9.8 24.6,60.7 6.2,131.2 c -1.8,6.7 -1.8,6.6 -8.9,6.9 -31.2,1.3 -62.4,2.8 -93.6,4.1 -17.5,0.7 -35,1.3 -52.4,2 -7.5,0.3 -15,0.8 -22.5,1.2 -5.8,0.3 -5.9,0.4 -5.7,5.9 0.5,11.5 1.1,23 1.7,34.4 0.7,14 1.7,27.9 2.3,41.9 1.7,35.7 3.3,71.4 5.1,107.1 1.9,39.9 4,79.9 5.9,119.8 2,40.7 4,81.4 6.1,122 1.2,24 2.6,47.9 3.9,71.8 0.4,7.5 0.9,7 -6.4,7.3 -42.2,2 -84.3,4.1 -126.5,6.2 -24.7,1.3 -49.4,2.7 -74.1,4 -2.5,0.1 -5,0 -7.5,0.2 -2.9,0.2 -4,-1.1 -4.1,-3.9 -0.3,-7.5 -0.8,-15 -1.2,-22.5 -1.2,-25 -2.3,-49.9 -3.6,-74.9 -1.7,-32.7 -3.6,-65.4 -5.4,-98 -1.3,-24.5 -2.3,-48.9 -3.6,-73.4 -1.2,-23.5 -2.6,-46.9 -3.9,-70.3 -0.6,-11 -1.2,-22 -1.7,-32.9 -1.7,-34.7 -3.4,-69.4 -5.1,-104.1 -0.4,-9 -0.9,-18 -1.4,-26.9 -0.3,-6 -0.4,-6.2 -5.9,-5.9 -19.4,1.2 -38.9,2.5 -58.3,3.7 -9.5,0.6 -18.9,1.2 -28.4,1.8 -25.2,1.5 -50.4,3 -75.6,4.5 -2.8,0.3 -5.8,0.9 -9.2,-0.4 z"
   inkscape:connector-curvature="0"
   style="fill:#f01919;fill-opacity:1" />
		<path
   id="XMLID_76_"
   class="st0"
   d="m 896.8,-466.6 c 4.5,-24.3 9.1,-48.6 13.6,-72.8 5.1,-27.7 10.2,-55.5 15,-83.2 0.7,-4.3 2.9,-5.3 6.5,-5.6 7.5,-0.5 14.9,-1.1 22.4,-1.7 22.7,-1.7 45.3,-3.2 68,-5 16.9,-1.3 33.8,-2.8 50.7,-4.1 1.9,-0.2 4,-0.6 6.5,0.5 -1.5,9.6 -2.9,19.3 -4.5,29 -5.8,36.2 -11.6,72.4 -17.5,108.6 -5.2,32.5 -10.5,65 -15.8,97.5 -5.2,32.5 -10.5,65 -15.7,97.6 -4,25.1 -8.1,50.3 -12,75.4 -0.5,3 -1.8,4.2 -4.7,4.6 -7.4,1.1 -14.9,1 -22.4,1.8 -15.1,1.6 -30.4,2.3 -45.5,3.5 -22.9,1.8 -45.8,3.7 -68.7,5.6 -4.5,0.4 -9,0.2 -13.5,0.8 -3.8,0.5 -5.1,-1 -6.3,-4.4 -7.2,-20.5 -14.6,-40.8 -22,-61.2 -9.9,-27.4 -19.8,-54.8 -29.7,-82.3 -0.5,-1.4 -0.6,-2.9 -2.8,-4.2 -2.2,11.1 -4.3,21.9 -6.4,32.7 -7.8,40.2 -15.7,80.3 -23.3,120.5 -0.8,4.2 -1.8,6.3 -6.8,6.6 -16.2,0.9 -32.3,2.6 -48.5,3.9 -23.6,1.9 -47.3,3.8 -70.9,5.7 -9.2,0.7 -18.4,1.4 -27.6,1.9 -5.8,0.3 -5.9,0.2 -7.7,-5.3 -10.6,-32.4 -21.2,-64.9 -31.8,-97.3 -31.5,-96.4 -62.9,-192.8 -94.4,-289.2 -0.5,-1.7 -1.2,-3.3 -1.1,-5.4 10.9,-2.3 22.2,-2.1 33.2,-3.2 24.6,-2.3 49.2,-4 73.9,-5.9 13.2,-1 26.4,-2.1 39.6,-3.1 5.7,-0.4 5.8,-0.4 8,6 16.6,47.3 33.1,94.6 49.7,141.8 1,3 1.5,6.3 4.2,9.2 2.6,-13.7 5.1,-26.9 7.6,-40.1 7.4,-39.5 14.7,-79 22.2,-118.4 1.1,-5.8 1.2,-5.7 7,-6.1 24.1,-1.9 48.3,-3.8 72.4,-5.7 12.9,-1 25.9,-1.9 38.8,-3.1 3.7,-0.4 4.1,1.9 4.9,4.2 5.7,16 11.3,32 16.9,47.9 11.5,32.4 22.9,64.8 34.4,97.2 0.4,1.2 1,2.3 1.5,3.4 0.6,0.8 0.9,2.4 2.6,1.4 z"
   inkscape:connector-curvature="0"
   style="fill:#ffffff" />
		<path
   id="XMLID_75_"
   class="st0"
   d="m 558.3,-240.3 c -18.9,1.2 -36.9,2.3 -54.8,3.5 -25.2,1.6 -50.3,3.2 -75.5,4.8 -5.3,0.3 -5.4,0.3 -6.7,-5.1 -3.9,-15.7 -7.9,-31.4 -11.6,-47.2 -0.9,-3.8 -2.3,-4.5 -6.1,-4.2 -18.9,1.5 -37.9,2.5 -56.8,3.7 -15.2,1 -30.4,2.2 -45.6,2.8 -4.3,0.2 -4.8,2.6 -5.5,5.6 -2.6,11.7 -5.1,23.4 -7.6,35.1 -1.1,4.9 -2.2,9.7 -3.1,14.6 -0.6,3.1 -1.9,4.6 -5.4,4.8 -18,0.9 -35.9,2 -53.8,3.2 -22.9,1.4 -45.8,3 -68.8,4.4 -2.4,0.2 -4.9,0.9 -7.9,-0.6 20.2,-101.1 40.5,-202.2 60.8,-303.7 -12.4,-1 -24.2,2.1 -36.9,1 2.1,-12.7 4.1,-25.1 6.1,-37.6 3.8,-22.9 7.6,-45.8 11.4,-68.7 0.2,-1.2 0.5,-2.5 0.6,-3.7 0.3,-4 2.4,-5.1 6.3,-5.4 27.2,-1.5 54.4,-3.1 81.5,-4.8 30.9,-1.9 61.8,-4 92.7,-6 15.7,-1 31.4,-2 47.1,-3.1 6.5,-0.4 6.5,-0.5 8.6,5.8 7.5,23 15,46 22.6,68.9 35.2,107.8 70.5,215.6 105.7,323.4 0.9,2.7 1.7,5.3 2.7,8.5 z"
   inkscape:connector-curvature="0"
   style="fill:#ffffff" />
		<path
   id="XMLID_74_"
   class="st0"
   d="m -188.8,-523.2 c 3.8,-14.6 7.2,-27.9 10.7,-41.1 6.3,-23.6 12.6,-47.2 18.9,-70.8 1.9,-7 1.9,-7.2 9.3,-6.9 29.9,1.3 59.9,2.7 89.8,4 18.2,0.8 36.5,1.2 54.7,2 12.7,0.6 25.4,0.8 38.1,2.6 47.1,6.5 81,31.7 102.8,73.4 13.2,25.2 16.7,52.6 15.1,80.7 -1,17.8 -3.9,35.2 -10.1,52 -10.3,28.1 -28.1,50.4 -52.8,67.2 -5.6,3.8 -5.6,3.9 -2.6,10.3 18.6,40.3 37.2,80.6 55.8,120.9 0.9,2 1.8,4 2.9,6.5 -4,0 -7.4,0.1 -10.8,0 -29.4,-1.3 -58.9,-2.7 -88.3,-4 -13.2,-0.6 -26.5,-1.4 -39.7,-1.5 -4.6,0 -6.4,-1.8 -7.9,-5.8 -13.8,-36.3 -27.9,-72.6 -41.9,-108.8 -0.6,-1.6 -1.3,-3.1 -3.1,-4.5 -0.5,9 -1.1,18 -1.5,27.1 -1.1,28 -2.1,55.9 -3.2,83.9 -0.2,5.3 -0.3,5.5 -5.5,5.3 -25,-1 -49.9,-2 -74.9,-3.1 -12,-0.5 -24,-1.1 -35.9,-1.4 -3.8,-0.1 -5.1,-1 -4.9,-5.1 1.3,-27.5 2.4,-54.9 3.5,-82.4 1.4,-35 2.8,-69.9 4.3,-104.9 1.2,-29.2 2.5,-58.4 3.8,-87.6 0,-1 0,-2 0.1,-3 0.5,-3.4 -0.7,-5.1 -4.4,-5 -7.1,0.2 -14,0 -22.3,0 z"
   inkscape:connector-curvature="0"
   style="fill:#ffffff" />
		<path
   id="XMLID_73_"
   class="st0"
   d="m -253.4,-440.2 c 1.4,2.3 3.7,2.9 5.6,4.1 8.6,5.2 16.8,10.7 24.8,16.8 16.2,12.5 27,28.5 32.8,48 6,20.1 9.8,40.5 6.3,61.3 -6.8,40.9 -30.9,68.1 -68.8,83.6 -14.2,5.8 -29.4,7.1 -44.5,8.9 -19.1,2.3 -38.1,4.7 -57.1,7 -18.1,2.2 -36.1,4.3 -54.2,6.5 -19.1,2.3 -38.1,4.5 -57.1,7.1 -10.5,1.4 -10.6,1.7 -11.9,-8.5 -2.9,-23.5 -5.5,-47.1 -8.3,-70.7 -2.7,-23.6 -5.5,-47.1 -8.3,-70.6 -2.7,-23.6 -5.5,-47.1 -8.2,-70.7 -2.3,-19.8 -4.8,-39.6 -6.9,-59.5 -0.4,-3.9 -1.8,-5.1 -5.5,-4.6 -6.9,1 -13.7,1.7 -21.3,2.5 0.9,-9.1 1.6,-17.7 2.5,-26.3 3,-29.3 6.1,-58.6 9.2,-87.9 0.7,-6.8 0.7,-7 8,-7.9 13.8,-1.8 27.7,-3.3 41.6,-5 19.1,-2.3 38.1,-4.7 57.1,-7 14.1,-1.7 28.2,-3.3 42.3,-5 14.8,-1.8 29.7,-3.4 44.5,-5.5 33.9,-4.8 63.9,2.7 88.5,27.5 9.5,9.5 16.4,20.7 20.7,33.4 7.3,21.2 9.1,42.8 4.6,64.9 -4.2,20.5 -14.4,37.5 -29.6,51.7 -2.4,2 -4.6,4 -6.8,5.9 z"
   inkscape:connector-curvature="0"
   style="fill:#ffffff" />
		<path
   id="XMLID_72_"
   class="st0"
   d="m 952.6,1192.8 c 17.1,-1.9 34.2,-3.8 51.2,-5.8 10.4,-1.2 20.8,-2.5 31.2,-3.5 5.1,-0.5 5.3,-0.3 5.7,5 1.2,18 1.2,36 -0.1,53.9 -2.2,30.2 -7.9,59.8 -17.6,88.6 -14.4,42.8 -36.8,80.7 -69,112.5 -14.3,14.1 -29.9,26.4 -47.4,37.1 -3.2,-7.6 -4.9,-15.3 -7.1,-22.9 -24.9,-84.1 -49.7,-168.3 -74.6,-252.4 -1.2,-4.1 -1.2,-7.6 0,-11.6 29.6,-100.9 59.1,-201.9 88.5,-302.9 1.2,-4 3.2,-6.1 7,-7.6 34.4,-13.7 68.8,-27.6 103.3,-41.5 2.7,1.6 2.9,4.5 3.8,7 12.9,35.4 20.7,71.8 23,109.4 2.4,38.8 -1.9,76.8 -14.4,113.6 -16.2,47.8 -45,87 -83.6,119.2 -0.5,0.7 -1.1,1.4 0.1,1.9 z"
   inkscape:connector-curvature="0"
   style="fill:#ffffff" />
		<path
   id="XMLID_71_"
   class="st0"
   d="m -237.5,1192.8 c -5.9,-5.3 -10.7,-9.5 -15.4,-13.9 -44.4,-41.5 -71.5,-92.3 -81.2,-152.3 -5.5,-34.3 -4.9,-68.6 0.4,-102.9 3.9,-25 9.9,-49.4 18.6,-73.1 1.1,-3 1.9,-6.2 4.1,-9 21.7,8.7 43.4,17.4 65.1,26.1 12,4.8 23.9,9.8 36.1,14.4 4.6,1.7 7.1,4.3 8.5,9.1 17.5,59.8 35.1,119.6 52.8,179.3 12.2,41.4 24.4,82.7 36.7,124 1.2,3.9 1.6,7.6 0.4,11.6 -26.3,89.7 -52.6,179.3 -78.9,269 -0.6,1.9 -0.7,4 -2.6,5.7 -10.3,-5.9 -19.9,-13 -29.1,-20.5 -45.6,-37.2 -75,-84.9 -91.5,-140.9 -12.1,-40.8 -16.9,-82.6 -14.4,-125.1 0.8,-13.3 -1.6,-11.7 12.8,-9.9 14.3,1.7 28.7,3.3 43.1,4.9 7.4,0.9 14.8,1.9 22.2,2.7 3.6,0.4 7.2,0.5 12.3,0.8 z"
   inkscape:connector-curvature="0"
   style="fill:#ffffff" />
		<path
   id="XMLID_70_"
   class="st4"
   d="m -142.8,1486.6 c 2.8,-13.7 7.4,-26.9 11.3,-40.3 23.2,-79.4 46.5,-158.8 69.8,-238.2 1.5,-5 1.5,-9.5 0,-14.5 -26.8,-90.3 -53.6,-180.6 -80.2,-271 -0.8,-2.8 -3.6,-5.6 -1.2,-8.9 11.8,3.1 21.4,10.6 31.7,16.5 51.4,29.3 102.8,58.6 154.1,88 3,1.7 6.5,3 7.4,6.9 -4.5,11.9 -11,22.9 -16,34.6 -15.2,35.8 -24.5,73 -27.3,111.6 -2.6,36.2 2.8,71.8 12.7,106.7 18.5,64.8 52.5,120.4 102.2,165.7 55.4,50.4 120.7,80.2 195.3,88.8 69.4,8 135.4,-4.2 197.6,-35.8 29.3,-14.9 55.9,-33.7 80,-56.4 60.8,-57.4 96.4,-127.8 109.2,-210.1 1.1,-6.8 -0.1,-14.1 4.4,-20.1 4.4,1.8 3.2,5.8 3.3,9 0.7,18.8 -1.6,37.4 -4.9,55.8 -6,32.8 -16.3,64.3 -31.3,94.1 -1.7,3.3 -3.4,6.7 -5.6,9.7 -58.9,110.4 -180.9,185.6 -311.1,184.7 -51.3,0.8 -100.3,-9.6 -147.2,-30.2 -35.5,-15.6 -67.6,-36.5 -96.3,-62.8 -26.4,-24.1 -48.6,-51.6 -66.7,-82.4 -3.2,-5.4 -6.1,-5.1 -10.8,-2.5 -25.5,14.4 -50.7,29.2 -76.1,43.7 -31.9,18.3 -63.6,36.7 -95.6,54.9 -2.5,1.9 -5.1,4.5 -8.7,2.5 z"
   inkscape:connector-curvature="0"
   style="fill:#fee25b" />
		<path
   id="XMLID_69_"
   class="st0"
   d="m 1219.7,-331.5 c 43,2.4 85.5,4.8 128.8,7.2 -4.1,13.7 -8,26.5 -11.8,39.3 -7.7,26 -15.4,52.1 -23.1,78.1 -1.9,6.4 -2,6.6 -8.6,6.1 -29.4,-1.9 -58.8,-3.9 -88.2,-5.7 -19.4,-1.2 -38.9,-2.3 -58.3,-3.5 -22.7,-1.4 -45.3,-3 -68.5,-4.5 0.2,-5.1 0.4,-10 0.7,-14.9 2.8,-37.4 5.7,-74.7 8.5,-112.1 2.7,-36.6 5.3,-73.3 7.9,-109.9 1,-14 2.1,-27.9 3.1,-41.9 0.4,-5.8 0.3,-5.8 -5.3,-6.2 -6.7,-0.5 -13.3,-1.1 -20.6,-1.7 1.2,-8.5 2.2,-16.6 3.4,-24.7 4.4,-29.6 8.9,-59.2 13,-88.9 0.6,-4.5 2.3,-5.2 6.1,-4.9 20.4,1.4 40.8,2.7 61.3,4 10,0.6 19.9,1.3 29.9,1.9 12,0.7 23.9,1.2 35.9,2 6.6,0.4 6.6,0.5 6.1,7 -3.3,43.1 -6.6,86.2 -9.8,129.3 -2.7,36.6 -5.3,73.2 -7.9,109.9 -0.8,11.2 -1.7,22.3 -2.6,34.1 z"
   inkscape:connector-curvature="0"
   style="fill:#ffffff" />
		<path
   id="XMLID_68_"
   class="st5"
   d="m 667.7,1378.7 c 12.9,-23.1 22.6,-47.5 29.7,-73 4.7,-16.7 8.1,-33.8 10.2,-51 1.6,-13.3 2.5,-26.7 1.9,-40.2 -0.1,-1.5 -0.2,-3 -1.1,-4.3 -2.4,-1.4 -2.2,-3.7 -2,-6 2.3,-29.4 -2.2,-58.2 -8.6,-86.8 -6.9,-30.6 -18,-59.7 -33.3,-87.1 -1.1,-2 -2.1,-4 -2.1,-6.3 0.6,-3.1 3.3,-4.3 5.6,-5.6 59.9,-34.3 119.7,-69 179.6,-103.4 2.4,-1.4 5.2,-1.8 7.7,-2.9 2.7,2.6 0.1,5.1 -0.5,7.3 -12.9,44.6 -25.9,89.1 -38.9,133.6 -13.7,46.9 -27.5,93.8 -41.3,140.7 -1.2,4 -1.2,7.6 -0.1,11.6 24.1,81.3 48.1,162.6 72.2,243.9 3.5,12 6.9,24 10.3,35.9 -3.5,1.7 -6.3,-0.2 -9.1,-1.8 -58,-33.6 -116.3,-66.6 -174.5,-99.9 -2.3,-1.1 -4.5,-2.4 -5.7,-4.7 z"
   inkscape:connector-curvature="0"
   style="fill:#fdb820" />
		<path
   id="XMLID_67_"
   class="st4"
   d="m 855.2,912.2 c -6.6,5.8 -14.7,9.2 -22.2,13.6 -28.8,16.9 -57.7,33.4 -86.6,50.1 -21.8,12.5 -43.7,25 -65.5,37.4 -5.8,3.3 -11.7,6.5 -17.6,9.7 -4.2,-1 -5.6,-4.9 -7.4,-7.9 C 624.3,963.3 581.7,922.7 529.1,892.8 486.5,868.6 440.6,854 391.7,849.3 c -9.7,-0.9 -19.4,-1.1 -29.1,-1.3 -3.4,-0.1 -7.2,0.2 -8.8,-4.1 -1.1,-3.7 -0.8,-7.4 -0.8,-11.2 0,-64 0,-127.9 0,-191.9 0,-4.7 -0.4,-9.6 2.7,-13.7 2.6,0.1 3.6,2.4 5.1,4 66,68.2 131.9,136.5 197.8,204.8 3.8,3.9 7.7,6.4 13.1,7.7 78.2,18.7 156.3,37.5 234.4,56.4 16.3,4 32.7,8.2 49.1,12.2 z"
   inkscape:connector-curvature="0"
   style="fill:#fee25b" />
		<path
   id="XMLID_66_"
   class="st0"
   d="m 355.6,627.1 c 0.1,70.8 0.1,141.5 0.2,212.3 0,2 -0.1,4 -0.1,6 -1.8,3.5 -5.1,2.5 -7.9,2.6 -83.4,1.8 -156.4,30.8 -219.9,84.2 -28.9,24.3 -52.4,53.3 -72.2,85.3 -1.6,2.6 -2.5,6.2 -6.4,6.7 -37.3,-21.4 -74.5,-42.7 -111.8,-64.1 -25.4,-14.5 -50.7,-29 -76.1,-43.5 -1.5,-0.9 -2.8,-2 -4.3,-3 16.1,-4.1 32.3,-8.2 48.5,-12.2 70.8,-17.3 141.6,-34.5 212.3,-51.8 8.5,-2.1 16.8,-4.4 25.4,-6.2 3.7,-0.8 6.3,-2.5 8.8,-5.1 66,-68.9 132.1,-137.8 198.3,-206.6 1.4,-1.6 2.6,-4 5.2,-4.6 z"
   inkscape:connector-curvature="0"
   style="fill:#ffffff" />
		<path
   id="XMLID_65_"
   class="st6"
   d="m 667.7,1378.7 c 12,5.4 23.1,12.7 34.5,19.1 26.4,14.9 52.7,30.1 79.1,45.2 21.8,12.5 43.6,25 65.4,37.5 3.2,1.8 6.2,4.2 10.1,4.7 -0.2,2.8 -2.5,2.3 -4.2,2.7 -47.2,11.6 -94.5,23.1 -141.7,34.6 -47,11.5 -94,23 -141,34.4 -3.3,0.8 -5.9,2.3 -8.2,4.7 -41.3,43.1 -82.7,86.2 -124,129.4 -25.8,26.9 -51.6,53.7 -77.4,80.6 -0.8,0.9 -1.3,3 -3.3,1.8 -2,-3.6 -2.6,-7.5 -2.6,-11.6 0,-63 0,-125.9 0.1,-188.9 0,-4.1 -0.7,-8.7 4.1,-11.2 130.1,-0.1 248.7,-72.3 309.1,-183 z"
   inkscape:connector-curvature="0"
   style="fill:#c95e40" />
		<path
   id="XMLID_64_"
   class="st5"
   d="m 358.6,1561.8 c -2.2,2.9 -1.4,6.2 -1.4,9.4 0,64.2 0,128.3 0,192.5 0,3.2 -0.1,6.5 -0.1,9.7 -2.6,-1.1 -4.1,-3.5 -6,-5.5 -65.4,-67.8 -130.8,-135.5 -196.2,-203.4 -4,-4.1 -8.3,-6.5 -13.9,-7.8 -92.8,-22.3 -185.5,-44.7 -278.2,-67.1 -1.9,-0.5 -3.9,-0.7 -5.6,-1.9 -0.2,-0.1 -0.3,-0.4 -0.3,-0.5 0,-0.2 0.3,-0.4 0.4,-0.6 8.6,-3.3 16.2,-8.6 24.2,-13.1 21.5,-12.1 42.7,-24.6 64.1,-37 21.6,-12.5 43.1,-24.9 64.7,-37.4 10.4,-6 20.8,-11.8 31.1,-17.8 3.2,-1.9 5,-1.1 6.6,1.9 8.5,15.9 18.9,30.5 29.9,44.6 4,5.1 8.1,10.2 12.5,14.8 8.6,9 16.8,18.3 26.1,26.6 14.1,12.7 29.1,24.3 44.8,34.7 14.1,9.4 29,17.6 44.5,24.6 27.3,12.5 55.6,21.7 85.2,27.1 22.4,4.2 44.9,6.3 67.6,6.2 z"
   inkscape:connector-curvature="0"
   style="fill:#fdb820" />
		<path
   id="XMLID_63_"
   class="st7"
   d="m 896.8,-466.6 c 0.2,0.9 0.5,2.1 -0.4,2.6 -1,0.6 -1.5,-0.6 -1.9,-1.3 -0.3,-0.8 -0.3,-1.8 -0.5,-2.7 1,0.5 1.9,0.9 2.8,1.4 z"
   inkscape:connector-curvature="0"
   style="fill:#444646" />
		<path
   id="XMLID_62_"
   class="st8"
   d="m 952.6,1192.8 c -0.5,1.1 -1.6,1.4 -2,0.4 -0.5,-1.1 0.4,-2.2 1.8,-2.3 0,0.6 0.1,1.2 0.2,1.9 z"
   inkscape:connector-curvature="0"
   style="fill:#868789" />
		<path
   id="XMLID_61_"
   d="m 1238.6,588.5 c -3.1,-2.9 -3.8,-5.7 -5,-8.1 -21,-45 -42,-90 -63,-135.1 -2.9,-6.3 -2.9,-6.3 3.3,-10.3 43.8,-28.1 77.4,-65.1 98.8,-112.8 12.5,-28 20,-57.4 23.4,-87.9 1,-9.4 1.9,-18.8 2.8,-28.1 2.3,-0.1 2.8,1.5 3.6,2.7 19.6,29.4 44.8,52.9 74.4,71.8 35.9,23 74.1,41.2 113.1,58.2 17.6,7.7 35.6,14.5 52.8,23 14.4,7.1 28.4,14.8 40.8,24.9 4.1,3.3 7.7,7.1 11.2,11.1 14.8,16.6 5.6,43.1 -9.2,51.7 -9.1,5.3 -19,7.5 -29.3,7.9 -24.5,1 -48.2,-3.9 -71.4,-11 -24.4,-7.4 -47.9,-17 -70.6,-28.9 -32.1,-16.8 -64.1,-33.6 -96.2,-50.4 -1.7,-0.9 -3.2,-2.3 -6.2,-2.1 -24.3,74.1 -48.7,148.4 -73.3,223.4 z"
   inkscape:connector-curvature="0" />
		<path
   id="XMLID_60_"
   d="m 907.8,205.4 c 1,-30.7 1.7,-53.1 2.5,-75.6 0.2,-6.7 0.3,-6.9 6.6,-6.5 22.4,1.3 45,0.5 67.4,2.7 31.1,3 58.4,28 64.1,58.6 7.6,40.6 -16.4,77.9 -56.4,87.5 -6.1,1.5 -12.3,2.3 -18.5,2.1 -20.5,-0.7 -40.9,-1.5 -61.4,-2.3 -6,-0.2 -6,-0.3 -6,-6.4 0.2,-22.9 1.9,-45.6 1.7,-60.1 z"
   inkscape:connector-curvature="0" />
		<path
   id="XMLID_59_"
   d="m 360.7,129.6 c 17.7,74.9 35.5,149.7 53.2,224.4 -2.7,2 -5.3,1.3 -7.7,1.2 -34,-0.3 -68,-0.7 -101.9,-1.1 -0.5,0 -1,0 -1.5,0 -4.6,-0.2 -4.9,-0.5 -3.8,-4.7 1.5,-5.8 3.2,-11.5 4.7,-17.3 17.8,-65.2 35.5,-130.4 53.3,-195.6 0.6,-2.4 1.4,-4.7 2.1,-7.1 0.6,0.1 1.1,0.1 1.6,0.2 z"
   inkscape:connector-curvature="0" />
		<path
   id="XMLID_58_"
   class="st9"
   d="m 338.2,-510.3 c 12.1,38.3 24.1,76.5 36.5,115.8 -20.3,2.4 -40.4,2.5 -61.5,4.6 7.7,-40.7 15.7,-80.4 23.5,-120.2 0.4,0 0.9,-0.1 1.5,-0.2 z"
   inkscape:connector-curvature="0"
   style="fill:#000100" />
		<path
   id="XMLID_57_"
   d="m -23.5,-445.5 c -5.2,0 -10.5,-0.3 -15.7,0.1 -4.3,0.3 -4.9,-1.6 -4.8,-5.2 0.7,-17.4 1.2,-34.9 1.7,-52.3 0.1,-4.7 0.4,-9.5 0.3,-14.2 0,-3 0.7,-4.8 4.2,-4.4 10.9,1.2 21.9,0.5 32.9,1.4 18.8,1.5 33.3,17.1 34.4,36.2 1,18.5 -12,34.7 -30.6,38.7 -3.7,0.8 -7.4,1.1 -11.1,0.9 -3.7,-0.2 -7.5,-0.4 -11.2,-0.6 -0.1,-0.2 -0.1,-0.4 -0.1,-0.6 z"
   inkscape:connector-curvature="0" />
		<path
   id="XMLID_56_"
   d="m -375.2,-296.7 c -1.5,-14 -2.9,-27.2 -4.2,-40.3 -0.9,-8.7 -1.8,-17.4 -2.7,-26 -0.2,-2.3 -0.9,-4.7 2.5,-4.9 12.9,-1 25.6,-4.3 38.6,-2.6 17.1,2.2 29.9,17.3 30.2,34.7 0.3,16.9 -12.7,33 -29.5,35.5 -11.2,1.7 -22.6,2.4 -34.9,3.6 z"
   inkscape:connector-curvature="0" />
		<path
   id="XMLID_55_"
   class="st10"
   d="m -398.7,-507.9 c 8.7,-2.3 17,-2.3 25.1,-3.1 15.5,-1.6 28.6,9.2 30.6,24.4 2,15.2 -8.8,29.1 -22.9,30.9 -7.7,1 -15.4,1.7 -23,2.7 -3.2,0.4 -4.3,-0.7 -4.6,-3.9 -1.2,-12.7 -2.6,-25.3 -3.9,-38 -0.5,-4.3 -0.8,-8.5 -1.3,-13 z"
   inkscape:connector-curvature="0"
   style="fill:#010101" />
		<path
   id="XMLID_54_"
   d="m 49.1,1024.3 c 11.3,-18.6 23.2,-36.7 37.4,-53.2 52.2,-60.9 117.2,-100.4 195.7,-117.6 22.2,-4.9 44.7,-7.6 67.5,-7.7 2,0 4,-0.3 6,-0.4 11.9,1 23.9,0.7 35.9,1.9 39.6,3.9 77.4,14.1 113.4,30.9 65.6,30.7 117.1,77.3 154.7,139.2 1.2,1.9 2.4,3.8 3.6,5.7 10.4,19.6 19.9,39.6 27.1,60.7 11.4,33.3 17.2,67.6 18.9,102.7 0.4,8 -0.8,15.9 -0.9,23.9 -5,49.5 -18,96.7 -42.1,140.3 -52.7,95.2 -132.3,154.9 -238.3,179 -34.1,7.7 -68.8,9.4 -103.6,6 -129.1,-12.6 -235.7,-92 -287.7,-205 -16.2,-35.2 -26.2,-72.1 -30.8,-110.6 -5.6,-47.4 2.3,-93 17.3,-137.8 6.7,-20.2 16,-39.3 25.9,-58 z"
   inkscape:connector-curvature="0" />
		<path
   id="XMLID_53_"
   class="st11"
   d="m 356.4,1458.4 c -38.7,0 -77.5,0 -116.2,0 -6.6,0 -12.9,-0.8 -18.7,-4.4 -10.1,-6.3 -15.4,-15.5 -15.8,-27.3 -0.3,-8.5 -0.5,-17 0.1,-25.5 0.4,-6 -1.6,-9.2 -7.2,-11.9 -33.5,-16.2 -62.6,-38.3 -86.2,-67.2 -28.8,-35.3 -45.1,-75.7 -48,-121.2 -4.1,-64.4 15.4,-121.9 53.2,-173.2 44.5,-60.4 103.5,-99.7 176.8,-116.6 28.9,-6.7 58.2,-8.4 87.8,-5.6 72.9,6.9 134.5,37.6 185.5,89.4 38.5,39.1 65.3,85.2 76.1,139.4 18.9,95.2 -11.5,172 -88.6,230.6 -13.1,10 -27.4,18.3 -42.3,25.4 -4.2,2 -6,4.2 -5.8,9 0.4,8.5 -0.4,17 0.2,25.5 1.2,17.3 -13.7,34.1 -34,33.8 -38.9,-0.6 -77.9,-0.2 -116.9,-0.2 z"
   inkscape:connector-curvature="0"
   style="fill:#febe22" />
		<path
   id="XMLID_52_"
   d="m 577.8,1245 c -0.5,28.9 -11.4,52.9 -34.3,70.9 -31.4,24.6 -75.5,23.3 -105.6,-2.9 -37.1,-32.2 -41.4,-89.7 -9,-126.6 21.7,-24.7 49.3,-34.8 81.6,-27.6 33,7.4 53.8,29 63.9,61 2.5,8.1 3.6,16.6 3.4,25.2 z"
   inkscape:connector-curvature="0" />
		<path
   id="XMLID_51_"
   d="m 141.9,1245 c 0.5,-28.9 11.4,-52.9 34.4,-70.8 32.6,-25.4 77.5,-23.1 107.8,5 38.2,35.5 37.7,97.9 -1.1,132.7 -46.5,41.7 -119.8,19.9 -137.5,-41 -2.5,-8.4 -3.6,-17.1 -3.6,-25.9 z"
   inkscape:connector-curvature="0" />
		<path
   id="XMLID_50_"
   class="st0"
   d="m 198.3,1114.6 c -12.2,0.3 -23.9,-1.9 -34.8,-7.4 -18.9,-9.7 -28.6,-28.5 -26.1,-49.6 2.2,-19.4 10.9,-35.7 23.2,-50.3 22.9,-27 51.9,-44.2 86.7,-51.1 13.9,-2.8 27.8,-2.7 41.6,1 28.7,7.7 43.7,32.3 37.3,61.5 -4.9,22.3 -17.3,40.2 -33.7,55.5 -22.8,21.3 -49.5,35.1 -80.7,39.7 -4.5,0.5 -9,0.6 -13.5,0.7 z"
   inkscape:connector-curvature="0"
   style="fill:#ffffff" />
		<path
   id="XMLID_49_"
   class="st12"
   d="m 372.9,1168.8 c -0.1,-4.9 1,-9.7 4.5,-13.2 13.3,-13.5 26.3,-27.4 40.3,-40.1 11.6,-10.5 29.1,-4.3 32.9,10.9 1.8,6.9 0,13.1 -4.8,18 -12.9,13.3 -25.9,26.4 -39.2,39.1 -6.3,6 -14.3,6.9 -22.2,3.1 -7.4,-3.4 -11.2,-9.6 -11.5,-17.8 z"
   inkscape:connector-curvature="0"
   style="fill:#010100" />
		<path
   id="XMLID_48_"
   class="st12"
   d="m 284.7,1110.4 c 5.7,0.5 10.6,2.1 14.5,6 12.6,12.5 25.3,24.9 37.6,37.6 8.4,8.6 8.2,20.9 0.1,28.9 -7.9,7.9 -20.4,8.1 -28.9,-0.1 -12.8,-12.3 -25.3,-24.8 -37.6,-37.6 -6.3,-6.5 -7.7,-14.4 -3.8,-22.8 3.6,-7.9 10.3,-11.2 18.1,-12 z"
   inkscape:connector-curvature="0"
   style="fill:#010100" />
		<path
   id="XMLID_47_"
   class="st12"
   d="m 312.4,1348.1 c 15.4,-24.7 30.2,-48.4 45.7,-73.3 14.5,25 28.3,48.8 42.5,73.3 -29.7,0 -58.2,0 -88.2,0 z"
   inkscape:connector-curvature="0"
   style="fill:#010100" />
	</g>
</g>
</svg>